<?xml version="1.0" encoding="UTF-8"?>
<svg xmlns="http://www.w3.org/2000/svg" viewBox="0 0 1200 630">
  <defs>
    <linearGradient id="og-bg" x1="0%" y1="0%" x2="100%" y2="100%">
      <stop offset="0%" stop-color="#D32F2F"/>
      <stop offset="50%" stop-color="#B71C1C"/>
      <stop offset="100%" stop-color="#1A237E"/>
    </linearGradient>
    <radialGradient id="og-glow" cx="80%" cy="20%" r="60%">
      <stop offset="0%" stop-color="#FF6F00" stop-opacity="0.3"/>
      <stop offset="100%" stop-color="transparent"/>
    </radialGradient>
  </defs>
  <rect width="1200" height="630" fill="url(#og-bg)"/>
  <rect width="1200" height="630" fill="url(#og-glow)"/>

  <!-- Grid -->
  <g opacity="0.06">
    <path d="M0 157 L1200 157 M0 315 L1200 315 M0 473 L1200 473" stroke="white" stroke-width="1"/>
    <path d="M300 0 L300 630 M600 0 L600 630 M900 0 L900 630" stroke="white" stroke-width="1"/>
  </g>

  <!-- LIVE 배지 -->
  <g transform="translate(72, 72)">
    <rect x="0" y="0" width="180" height="40" rx="20" fill="#00897B"/>
    <circle cx="20" cy="20" r="5" fill="#B7F5C9"/>
    <text x="36" y="26" font-family="'Pretendard', sans-serif" font-size="13" font-weight="700" fill="white" letter-spacing="1">LIVE · 지금 활동 중</text>

    <rect x="196" y="0" width="220" height="40" rx="20" fill="white"/>
    <text x="216" y="26" font-family="'Pretendard', sans-serif" font-size="13" font-weight="800" fill="#00A1E0">✓ imPD 검증 회원 · 2026</text>
  </g>

  <!-- 이름 -->
  <text x="72" y="280" font-family="'Pretendard', sans-serif" font-size="120" font-weight="900" fill="white" letter-spacing="-4">최범희 PD</text>

  <!-- 슬로건 -->
  <line x1="72" y1="320" x2="72" y2="400" stroke="rgba(255,255,255,0.4)" stroke-width="3"/>
  <text x="92" y="360" font-family="'Pretendard', sans-serif" font-size="24" font-weight="600" fill="white">"스마트폰으로 사진·동영상·글을 만들어</text>
  <text x="92" y="395" font-family="'Pretendard', sans-serif" font-size="24" font-weight="600" fill="white">홍보 마케팅 콘텐츠를 제작합니다"</text>

  <!-- 하단 KPI 라인 -->
  <g transform="translate(72, 480)">
    <text x="0" y="36" font-family="'Pretendard', sans-serif" font-size="40" font-weight="900" fill="white">15년</text>
    <text x="0" y="66" font-family="'Pretendard', sans-serif" font-size="13" fill="rgba(255,255,255,0.7)">PD 경력</text>

    <text x="180" y="36" font-family="'Pretendard', sans-serif" font-size="40" font-weight="900" fill="white">2회</text>
    <text x="180" y="66" font-family="'Pretendard', sans-serif" font-size="13" fill="rgba(255,255,255,0.7)">공식 수상</text>

    <text x="320" y="36" font-family="'Pretendard', sans-serif" font-size="40" font-weight="900" fill="white">B2G</text>
    <text x="320" y="66" font-family="'Pretendard', sans-serif" font-size="13" fill="rgba(255,255,255,0.7)">공공기관 출강</text>

    <text x="500" y="36" font-family="'Pretendard', sans-serif" font-size="40" font-weight="900" fill="white">2,412</text>
    <text x="500" y="66" font-family="'Pretendard', sans-serif" font-size="13" fill="rgba(255,255,255,0.7)">팔로워</text>
  </g>

  <!-- 우하단 URL -->
  <text x="1128" y="595" font-family="'JetBrains Mono', monospace" font-size="18" font-weight="600" fill="rgba(255,255,255,0.9)" text-anchor="end">impd.me/choi</text>

  <!-- 우상단 이니셜 뱃지 -->
  <g transform="translate(1020, 100)">
    <circle cx="60" cy="60" r="60" fill="rgba(255,255,255,0.12)" stroke="white" stroke-width="2"/>
    <text x="60" y="74" font-family="'Pretendard', sans-serif" font-size="48" font-weight="900" fill="white" text-anchor="middle">최</text>
  </g>
</svg>
